<?xml version="1.0" encoding="utf-8"?>
<!-- Generator: Adobe Illustrator 27.5.0, SVG Export Plug-In . SVG Version: 6.00 Build 0)  -->
<svg version="1.1" xmlns="http://www.w3.org/2000/svg" xmlns:xlink="http://www.w3.org/1999/xlink" x="0px" y="0px"
	 viewBox="0 0 750 500" style="enable-background:new 0 0 750 500;" xml:space="preserve">
<g id="BACKGROUND">
	<g>
		<rect style="fill:#CFE8FF;" width="750" height="451.9"/>
		<rect y="436.691" style="fill:#282828;" width="750" height="15.209"/>
	</g>
	<g>
		<rect y="445.475" style="fill:#98C5ED;" width="750" height="54.525"/>
		<g>
			<g>
				<line style="fill:none;stroke:#000000;stroke-miterlimit:10;" x1="42.3" y1="445.475" x2="42.3" y2="500"/>
			</g>
			<g>
				<line style="fill:none;stroke:#000000;stroke-miterlimit:10;" x1="153.2" y1="445.475" x2="153.2" y2="500"/>
			</g>
			<g>
				<line style="fill:none;stroke:#000000;stroke-miterlimit:10;" x1="264.1" y1="445.475" x2="264.1" y2="500"/>
			</g>
			<g>
				<line style="fill:none;stroke:#000000;stroke-miterlimit:10;" x1="375" y1="445.475" x2="375" y2="500"/>
			</g>
			<g>
				<line style="fill:none;stroke:#000000;stroke-miterlimit:10;" x1="485.9" y1="445.475" x2="485.9" y2="500"/>
			</g>
			<g>
				<line style="fill:none;stroke:#000000;stroke-miterlimit:10;" x1="596.8" y1="445.475" x2="596.8" y2="500"/>
			</g>
			<g>
				<line style="fill:none;stroke:#000000;stroke-miterlimit:10;" x1="707.7" y1="445.475" x2="707.7" y2="500"/>
			</g>
		</g>
	</g>
</g>
<g id="OBJECTS">
	<g>
		<g>
			<rect x="270.249" y="131.73" style="fill:#98C5ED;" width="80.496" height="107.967"/>
			<rect x="275.998" y="138.585" style="fill:#FFFFFF;" width="68.996" height="94.257"/>
			<g>
				<rect x="283.281" y="183.278" style="fill:#CFE8FF;" width="25.431" height="2.585"/>
				<rect x="283.281" y="151.912" style="fill:#CFE8FF;" width="54.431" height="2.584"/>
				<rect x="283.281" y="147.602" style="fill:#CFE8FF;" width="54.431" height="2.585"/>
				<rect x="283.281" y="159.286" style="fill:#CFE8FF;" width="54.431" height="21.221"/>
				<rect x="283.281" y="187.839" style="fill:#CFE8FF;" width="25.431" height="2.585"/>
				<rect x="283.281" y="192.4" style="fill:#CFE8FF;" width="25.431" height="2.585"/>
				<rect x="283.281" y="196.96" style="fill:#CFE8FF;" width="25.431" height="2.585"/>
				<rect x="283.281" y="201.521" style="fill:#CFE8FF;" width="18.772" height="2.585"/>
				<rect x="283.281" y="207.558" style="fill:#CFE8FF;" width="25.431" height="2.585"/>
				<rect x="283.281" y="212.119" style="fill:#CFE8FF;" width="25.431" height="2.585"/>
				<rect x="283.281" y="216.68" style="fill:#CFE8FF;" width="25.431" height="2.585"/>
				<rect x="283.281" y="221.241" style="fill:#CFE8FF;" width="25.431" height="2.585"/>
				<g>
					<rect x="312.281" y="183.278" style="fill:#CFE8FF;" width="25.431" height="2.585"/>
					<rect x="312.281" y="187.839" style="fill:#CFE8FF;" width="25.431" height="2.585"/>
					<rect x="312.281" y="192.4" style="fill:#CFE8FF;" width="25.431" height="2.585"/>
					<rect x="312.281" y="196.96" style="fill:#CFE8FF;" width="25.431" height="2.585"/>
					<rect x="312.281" y="201.521" style="fill:#CFE8FF;" width="18.772" height="2.585"/>
					<rect x="312.281" y="207.558" style="fill:#CFE8FF;" width="25.431" height="2.585"/>
					<rect x="312.281" y="212.119" style="fill:#CFE8FF;" width="25.431" height="2.585"/>
					<rect x="312.281" y="216.68" style="fill:#CFE8FF;" width="25.431" height="2.585"/>
					<rect x="312.281" y="221.241" style="fill:#CFE8FF;" width="25.431" height="2.585"/>
				</g>
			</g>
		</g>
		<g>
			<rect x="373.271" y="131.73" style="fill:#98C5ED;" width="58.363" height="76.99"/>
			<rect x="377.44" y="136.618" style="fill:#FFFFFF;" width="50.025" height="67.213"/>
			<g>
				<rect x="381.619" y="177.649" style="fill:#CFE8FF;" width="25.431" height="2.585"/>
				<rect x="381.619" y="146.283" style="fill:#CFE8FF;" width="41.668" height="2.584"/>
				<rect x="381.619" y="141.973" style="fill:#CFE8FF;" width="41.668" height="2.585"/>
				<rect x="381.619" y="153.657" style="fill:#CFE8FF;" width="41.668" height="21.221"/>
				<rect x="381.619" y="182.21" style="fill:#CFE8FF;" width="25.431" height="2.584"/>
				<rect x="381.619" y="186.771" style="fill:#CFE8FF;" width="25.431" height="2.585"/>
				<rect x="381.619" y="191.332" style="fill:#CFE8FF;" width="25.431" height="2.585"/>
				<rect x="381.619" y="195.892" style="fill:#CFE8FF;" width="18.772" height="2.585"/>
				<g>
					<rect x="410.619" y="177.649" style="fill:#CFE8FF;" width="12.668" height="2.585"/>
					<rect x="410.619" y="182.21" style="fill:#CFE8FF;" width="12.668" height="2.585"/>
					<rect x="410.619" y="186.771" style="fill:#CFE8FF;" width="12.668" height="2.585"/>
					<rect x="410.619" y="191.332" style="fill:#CFE8FF;" width="12.668" height="2.585"/>
					<rect x="410.619" y="195.892" style="fill:#CFE8FF;" width="12.668" height="2.585"/>
				</g>
			</g>
		</g>
		<rect x="208.771" y="153.516" style="fill:#98C5ED;" width="35.879" height="18.462"/>
		<g>
			<rect x="615.504" y="131.73" style="fill:#98C5ED;" width="80.496" height="107.967"/>
			<rect x="621.254" y="138.585" style="fill:#FFFFFF;" width="68.997" height="94.257"/>
			<g>
				<rect x="664.301" y="183.278" style="fill:#CFE8FF;" width="18.667" height="2.585"/>
				<rect x="664.301" y="159.286" style="fill:#CFE8FF;" width="18.667" height="21.221"/>
				<rect x="664.301" y="187.839" style="fill:#CFE8FF;" width="18.667" height="2.585"/>
				<rect x="664.301" y="192.4" style="fill:#CFE8FF;" width="18.667" height="2.585"/>
				<rect x="664.301" y="196.96" style="fill:#CFE8FF;" width="18.667" height="2.585"/>
				<rect x="664.301" y="201.521" style="fill:#CFE8FF;" width="10.836" height="2.585"/>
				<rect x="664.301" y="207.558" style="fill:#CFE8FF;" width="18.667" height="2.585"/>
				<rect x="664.301" y="212.119" style="fill:#CFE8FF;" width="18.667" height="2.585"/>
				<rect x="664.301" y="216.68" style="fill:#CFE8FF;" width="18.667" height="2.585"/>
				<rect x="664.301" y="221.241" style="fill:#CFE8FF;" width="18.667" height="2.585"/>
				<rect x="628.537" y="183.278" style="fill:#CFE8FF;" width="30.524" height="2.585"/>
				<rect x="628.537" y="151.912" style="fill:#CFE8FF;" width="54.431" height="2.584"/>
				<rect x="628.537" y="147.602" style="fill:#CFE8FF;" width="54.431" height="2.585"/>
				<rect x="628.537" y="159.286" style="fill:#CFE8FF;" width="30.524" height="21.221"/>
				<rect x="628.537" y="187.839" style="fill:#CFE8FF;" width="30.524" height="2.585"/>
				<rect x="628.537" y="192.4" style="fill:#CFE8FF;" width="30.524" height="2.585"/>
				<rect x="628.537" y="196.96" style="fill:#CFE8FF;" width="30.524" height="2.585"/>
				<rect x="628.537" y="201.521" style="fill:#CFE8FF;" width="22.694" height="2.585"/>
				<rect x="628.537" y="207.558" style="fill:#CFE8FF;" width="30.524" height="2.585"/>
				<rect x="628.537" y="212.119" style="fill:#CFE8FF;" width="30.524" height="2.585"/>
				<rect x="628.537" y="216.68" style="fill:#CFE8FF;" width="30.524" height="2.585"/>
				<rect x="628.537" y="221.241" style="fill:#CFE8FF;" width="30.524" height="2.585"/>
			</g>
		</g>
		<rect x="34.449" y="109.868" style="fill:#282828;" width="160.879" height="335.726"/>
		<rect x="42.581" y="120.043" style="fill:#98C5ED;" width="143.842" height="325.551"/>
		<polygon style="fill:#FFFFFF;" points="43.672,445.594 96.405,411.401 96.405,153.79 42.572,118.884 42.572,445.594 		"/>
		<g>
			<path style="fill:#FFFFFF;" d="M319.773,44.79H73.794v0c0-5.988,4.854-10.842,10.842-10.842h224.295
				C314.919,33.948,319.773,38.802,319.773,44.79L319.773,44.79z"/>
			<g>
				
					<line style="fill:none;stroke:#FFFFFF;stroke-width:2;stroke-miterlimit:10;" x1="123.261" y1="35.981" x2="123.261" y2="1.422"/>
				
					<line style="fill:none;stroke:#FFFFFF;stroke-width:2;stroke-miterlimit:10;" x1="270.306" y1="35.981" x2="270.306" y2="1.422"/>
			</g>
		</g>
		<g>
			<path style="fill:#FFFFFF;" d="M676.206,44.79H430.227v0c0-5.988,4.854-10.842,10.842-10.842h224.295
				C671.352,33.948,676.206,38.802,676.206,44.79L676.206,44.79z"/>
			<g>
				
					<line style="fill:none;stroke:#FFFFFF;stroke-width:2;stroke-miterlimit:10;" x1="479.693" y1="35.981" x2="479.693" y2="1.422"/>
				
					<line style="fill:none;stroke:#FFFFFF;stroke-width:2;stroke-miterlimit:10;" x1="626.739" y1="35.981" x2="626.739" y2="1.422"/>
			</g>
		</g>
	</g>
	<g>
		<g>
			<ellipse style="fill:#98C5ED;" cx="644.766" cy="452.798" rx="26.142" ry="7.977"/>
			<g>
				<g>
					<path style="fill:#282828;stroke:#282828;stroke-miterlimit:10;" d="M660.729,366.19l-22.901-0.971
						c0,0-5.128,7.585-3.413,43.742l3.415,35.249c0.142,1.623,1.614,2.882,3.395,2.906h0c1.854,0.024,3.393-1.296,3.483-2.988
						l1.137-20.45l-0.524-14.574l1.535-24.78l1.475,23.865l2.863,35.98c0.121,1.654,1.625,2.939,3.439,2.939h0.745
						c1.867,0,3.395-1.358,3.445-3.064l1.209-35.855c0,0,2.543-17.263,2.805-23.272C663.489,369.97,660.729,366.19,660.729,366.19z"
						/>
					
						<path style="fill:none;stroke:#FFFFFF;stroke-width:0.5;stroke-linecap:round;stroke-linejoin:round;stroke-miterlimit:10;" d="
						M656.43,373.618c-0.149,2.392,1.715,4.729,3.987,4.998"/>
					
						<path style="fill:none;stroke:#FFFFFF;stroke-width:0.5;stroke-linecap:round;stroke-linejoin:round;stroke-miterlimit:10;" d="
						M659.323,381.351c-0.451,8.062-0.901,14.124-1.352,22.185c-0.144,2.569-0.31,5.228-1.46,7.502
						c0.358,9.546,0.716,21.091,1.074,30.637"/>
					
						<path style="fill:none;stroke:#FFFFFF;stroke-width:0.5;stroke-linecap:round;stroke-linejoin:round;stroke-miterlimit:10;" d="
						M636.38,376.516c2.014-0.431,3.762-2.033,4.439-4.067"/>
					
						<path style="fill:none;stroke:#FFFFFF;stroke-width:0.5;stroke-linecap:round;stroke-linejoin:round;stroke-miterlimit:10;" d="
						M646.328,385.55c-3.544,10.681-3.256,20.282-2.927,31.585c0.243,8.346,0.486,18.692,0.729,27.038"/>
				</g>
				<g>
					<path style="fill:#282828;" d="M645.294,448.819c-4.084-0.779-7.057-0.512-11.223-0.243c-1.701,0.11-3.401,0.22-5.102,0.33
						c-0.445,0.029-0.894,0.035-1.309,0.083c-0.509,0.247-1.279,0.691-1.279,0.691s-0.444,0.415-0.506,0.655
						c-0.171,0.664,0.078,1.4,0.632,1.87c0.864,0.733,2.2,0.729,3.392,0.681c4.554-0.185,7.848-0.371,12.402-0.556
						c0.793-0.032,1.649-0.085,2.257-0.54C645.467,451.109,645.42,449.871,645.294,448.819z"/>
					<path style="fill:#8C9DFF;" d="M644.545,443.899c-0.645,0.044-0.921,0.71-1.188,1.224c-0.359,0.691-1.164,1.346-2.004,1.144
						c-1.721-0.415-1.757-3.46-3.981-1.835c-0.495,0.361-0.999,0.701-1.547,0.999c-1.096,0.596-2.276,1.056-3.429,1.559
						c-1.02,0.445-2.134,0.786-3.125,1.274c-0.839,0.414-1.771,0.656-2.589,1.115c-0.295,0.165-0.593,0.37-0.695,0.663
						c-0.119,0.341,0.069,0.717,0.363,0.964c0.398,0.334,0.884,0.448,1.382,0.58c0.812,0.212,1.68,0.157,2.525,0.101
						c4.986-0.332,8.686-0.664,13.672-0.996c0.275-0.018,0.559-0.039,0.805-0.148c0.685-0.306,0.768-1.116,0.759-1.788
						C645.484,447.869,646.093,443.793,644.545,443.899z"/>
					<path style="fill:#282828;" d="M643.152,448.118c0,0.645-0.599,1.167-1.339,1.167c-0.739,0-1.339-0.523-1.339-1.167
						c0-0.645,0.599-1.167,1.339-1.167C642.553,446.951,643.152,447.473,643.152,448.118z"/>
					<path style="fill:none;stroke:#282828;stroke-width:0.5;stroke-linecap:round;stroke-miterlimit:10;" d="M635.213,445.61
						c0.302,0.071,0.604,0.142,0.907,0.214"/>
					<path style="fill:none;stroke:#282828;stroke-width:0.5;stroke-linecap:round;stroke-miterlimit:10;" d="M633.413,446.543
						c0.36,0.108,0.719,0.216,1.079,0.325"/>
					<path style="fill:none;stroke:#282828;stroke-width:0.5;stroke-linecap:round;stroke-miterlimit:10;" d="M631.61,447.393
						c0.208,0.066,0.416,0.132,0.623,0.197"/>
				</g>
				<g>
					<path style="fill:#282828;" d="M650.613,451.683c-0.086,0.308-0.171,0.63-0.048,0.931c0.16,0.393,0.656,0.682,1.198,0.827
						c0.541,0.145,1.13,0.168,1.708,0.189c1.451,0.053,2.902,0.107,4.353,0.16c1.213,0.045,2.697-0.013,3.257-0.775
						c0.285-0.388,0.228-0.855,0.116-1.285c-0.381-1.462-1.319-2.85-2.688-3.979c-0.93-0.766-2.113-1.433-3.512-1.637
						c-1.567-0.228-3.118,0.127-3.357,1.274C651.339,448.823,651.014,450.25,650.613,451.683z"/>
					<path style="fill:#8C9DFF;" d="M651.519,447.18c-0.13,1.153-0.26,2.307-0.39,3.46c-0.036,0.317-0.068,0.651,0.121,0.94
						c0.407,0.626,1.577,0.736,2.551,0.76c1.481,0.037,2.961,0.074,4.442,0.11c0.958,0.024,2.141-0.044,2.535-0.662
						c0.237-0.371,0.076-0.803-0.087-1.194c-0.367-0.877-0.735-1.754-1.102-2.632c-0.324-0.774-0.653-1.556-1.225-2.254
						c-0.572-0.698-1.42-1.316-2.499-1.581C652.611,443.329,651.717,445.425,651.519,447.18z"/>
					<path style="fill:#8C9DFF;" d="M654.051,443.008c0.82-0.433,2.016-0.549,2.879-0.16c1.053,0.474,1.303,1.478,1.292,2.361
						c-0.007,0.579-0.138,1.231-0.796,1.577c-0.972,0.511-4.225,0.385-4.872-0.437C651.811,445.405,652.895,443.569,654.051,443.008
						z"/>
					
						<line style="fill:none;stroke:#282828;stroke-width:0.5;stroke-linecap:round;stroke-miterlimit:10;" x1="654.351" y1="447.951" x2="656.28" y2="447.951"/>
					<path style="fill:#282828;" d="M659.163,452.708c0.033,0.059-6.613,1.272-4.894-0.771
						C655.512,450.461,658.348,451.279,659.163,452.708z"/>
					<path style="fill:none;stroke:#282828;stroke-width:0.5;stroke-linecap:round;stroke-miterlimit:10;" d="M654.136,446.97
						c0.591-0.011,1.181-0.021,1.772-0.032"/>
					<path style="fill:none;stroke:#282828;stroke-width:0.5;stroke-linecap:round;stroke-miterlimit:10;" d="M653.999,446.06
						c0.636-0.032,1.272-0.064,1.908-0.096"/>
					<path style="fill:none;stroke:#282828;stroke-width:0.5;stroke-linecap:round;stroke-miterlimit:10;" d="M653.816,449.172
						c1.361-0.137,2.751-0.131,4.11,0.018c0.424,0.047,0.85,0.108,1.236,0.24c0.386,0.132,0.732,0.342,0.905,0.619"/>
				</g>
			</g>
			<g>
				<path style="fill:#8899F7;" d="M646.567,321.048l-16.545,4.305l-14.96-7.018c0,0-2.233-1.317-4.638,0.865
					c-3.607,3.272-0.42,6.336-0.42,6.336l14.583,9.795c1.112,0.769,1.73,1.417,2.83,1.198l21.049-4.875
					c2.591-0.52,4.423-2.842,4.325-5.483v0C652.672,322.941,649.758,320.544,646.567,321.048z"/>
				<path style="fill:none;stroke:#FFFFFF;stroke-width:0.5;stroke-linecap:round;stroke-linejoin:round;stroke-miterlimit:10;" d="
					M611.816,323.121c5.997,3.507,8.886,4.574,14.883,8.081c0.396,0.232,0.852,0.472,1.292,0.344
					c0.136,0.477,0.635,0.779,1.128,0.837c0.493,0.059,0.986-0.076,1.464-0.21c4.546-1.272,12.712-3.278,17.258-4.549"/>
				
					<path style="fill:none;stroke:#282828;stroke-width:0.75;stroke-linecap:round;stroke-linejoin:round;stroke-miterlimit:10;" d="
					M630.092,325.561c-0.092,1.045-0.531,2.056-1.232,2.836"/>
				
					<path style="fill:none;stroke:#282828;stroke-width:0.75;stroke-linecap:round;stroke-linejoin:round;stroke-miterlimit:10;" d="
					M629.99,325.453c-0.749,0.574-1.497,1.148-2.245,1.722"/>
				<path style="fill:#F3978E;" d="M604.18,322.547c1.576,2.846,5.162,3.876,8.008,2.299c2.846-1.576,3.876-5.162,2.299-8.008
					s-5.162-3.876-8.008-2.299C603.633,316.115,602.603,319.701,604.18,322.547z"/>
			</g>
			<g>
				<g>
					<g>
						<path style="fill:#282828;stroke:#282828;stroke-width:1.3;stroke-miterlimit:10;" d="M663.857,356.956l-16.451-0.687
							c-2.047-0.085-3.637-1.814-3.551-3.861l1.23-29.468c0.085-2.047,1.814-3.637,3.861-3.551l16.451,0.687
							c2.047,0.085,3.637,1.814,3.551,3.861l-1.23,29.468C667.633,355.451,665.904,357.041,663.857,356.956z"/>
						<path style="fill:#282828;stroke:#282828;stroke-width:1.3;stroke-miterlimit:10;" d="M641.144,324.626
							c-1.783,2.676-2.726,6.234-3.065,9.683c-0.219,2.224-0.152,4.555,0.596,6.654c0.755,2.118,2.263,3.937,4.227,4.52
							c2.496,0.741,4.243-0.887,5.946-2.665c3.346-3.495,4.731-8.966,4.992-13.537c0.104-1.824-0.106-3.707-0.864-5.345
							c-0.753-1.628-2.116-3.013-3.727-3.444c-1.251-0.334-2.561-0.088-3.75,0.401C643.686,321.64,642.254,322.96,641.144,324.626z"
							/>
						<path style="fill:#8C9DFF;" d="M653.307,319.626c2.18,0.409,5.326,1.526,6.721,3.277c1.618,2.031,2.817,4.525,3.738,6.921
							c1.952,5.082,2.567,10.66,1.691,16.023c-0.438,2.681-0.218,5.435-0.057,8.165c0.19,3.224,0.609,6.434,1.258,9.601
							c0.639,3.12,1.065,6.619-2.282,8.404c-1.896,1.012-4.146,1.11-6.306,1.185c-4.46,0.155-8.966,0.304-13.391-0.375
							c-3.16-0.484-8.19-1.454-9.019-5.147c-0.312-1.391,0.215-2.817,0.734-4.148c0.953-2.446,2.602-5.259,2.909-7.867
							c0.248-2.105-0.158-4.533-0.211-6.662c-0.081-3.286-0.063-6.582,0.085-9.867c0.135-2.99,0.354-5.998,0.886-8.949
							c0.323-1.792,0.672-4.039,1.918-5.484c4.07-4.72,8.746-5.182,8.746-5.182L653.307,319.626z"/>
						
							<path style="fill:none;stroke:#282828;stroke-width:0.75;stroke-linecap:round;stroke-linejoin:round;stroke-miterlimit:10;" d="
							M640.46,354.421c0.047,0.598,0.597,1.069,1.192,1.219c0.595,0.15,1.224,0.044,1.823-0.093
							c1.991-0.458,3.896-1.268,5.596-2.377"/>
						
							<path style="fill:none;stroke:#282828;stroke-width:0.75;stroke-linecap:round;stroke-linejoin:round;stroke-miterlimit:10;" d="
							M641.204,362.24c4.127-0.425,8.111-2.087,11.276-4.704c3.165-2.617,5.497-6.178,6.601-10.079"/>
						<path style="fill:none;stroke:#FFFFFF;stroke-width:0.5;stroke-miterlimit:10;" d="M660.073,373.093
							c0.568-3.565,0.078-7.199-0.411-10.775c-1.052-7.684-2.017-15.313-2.678-23.035"/>
					</g>
				</g>
				<path style="fill:#282828;stroke:#282828;stroke-width:1.3;stroke-miterlimit:10;" d="M652.62,327.866
					c-0.804,5.022,0.917,11.925,4.176,15.886c1.318,1.602,3.114,2.615,4.834,2.315c2.186-0.381,2.973-2.593,3.673-4.923
					c1.474-4.91,0.843-11.557-1.658-16.075c-0.783-1.416-2.012-2.657-3.565-3.111c-2.201-0.643-4.668,0.477-6.026,2.325
					C653.282,325.335,652.827,326.573,652.62,327.866z"/>
				<g>
					<path style="fill:#FFB1A5;" d="M654.02,321.216l0.488-10.269l-8.46-0.344l-0.439,10.252c-0.097,2.265,1.707,4.178,4.03,4.272
						l0,0C651.954,325.221,653.912,323.473,654.02,321.216z"/>
					<path style="fill:#282828;" d="M654.13,318.9l0.378-7.953l-8.46-0.344l-0.439,10.252c-0.006,0.136,0.016,0.266,0.024,0.399
						C648.738,321.378,651.669,320.56,654.13,318.9z"/>
				</g>
			</g>
			<g>
				<path style="fill:#8C9DFF;" d="M670.656,352.032c-0.45-1.374-0.882-2.718-1.201-4.122c-0.204-0.899-0.408-1.798-0.612-2.696
					c-0.625-2.752-0.934-3.497-1.559-6.249c-0.626-2.755-1.252-5.51-1.878-8.265c-0.127-0.56-0.255-1.121-0.382-1.681
					c-0.253-0.517-0.521-1.027-0.826-1.518c-0.378-0.607-0.835-1.295-1.349-1.971c-0.9-1.047-1.896-1.868-2.961-2.281
					c-0.207-0.009-0.414-0.015-0.625,0.006c-2.967,0.288-5.016,3.104-4.377,6.016l5.816,25.045l1.747,20.841
					c0,0-0.08,1.642,3.905,2.164s4.892-1.718,4.892-1.718c-0.002-0.073-0.004-0.146-0.007-0.22c-0.063-2.05-0.126-4.1-0.189-6.151
					c-0.102-3.313-0.203-6.626-0.305-9.939l-0.135-4.416C670.568,353.524,671.089,353.354,670.656,352.032z"/>
				<path style="fill:none;stroke:#FFFFFF;stroke-miterlimit:10;" d="M663.45,331.498c0,1.148-0.931,2.079-2.079,2.079
					c-1.148,0-2.079-0.931-2.079-2.079s0.931-2.079,2.079-2.079C662.519,329.419,663.45,330.35,663.45,331.498z"/>
				<path style="fill:none;stroke:#FFFFFF;stroke-width:0.5;stroke-linecap:round;stroke-miterlimit:10;" d="M658.151,323.67
					c0.991,1.027,1.724,2.301,2.112,3.675"/>
				<path style="fill:none;stroke:#FFFFFF;stroke-width:0.5;stroke-linecap:round;stroke-miterlimit:10;" d="M663.295,336.045
					c0.581,2.115,1.382,4.165,1.913,6.344c0.643,2.633,1.285,5.265,1.927,7.898c0.256,1.051,0.515,2.132,0.37,3.203
					c0.091,6.637,0.182,13.274,0.273,19.911"/>
				
					<path style="fill:none;stroke:#282828;stroke-width:0.75;stroke-linecap:round;stroke-linejoin:round;stroke-miterlimit:10;" d="
					M660.856,354.261c-2.318-9.221-3.231-15.709-5.044-21.754c-0.575-1.917-1.115-3.719-1.257-5.715"/>
				
					<path style="fill:none;stroke:#282828;stroke-width:0.75;stroke-linecap:round;stroke-linejoin:round;stroke-miterlimit:10;" d="
					M660.841,354.349c1.324-1.863,3.532-3.067,5.816-3.172"/>
				
					<path style="fill:none;stroke:#282828;stroke-width:0.75;stroke-linecap:round;stroke-linejoin:round;stroke-miterlimit:10;" d="
					M660.925,354.22c1.117-0.756,2.531-1.06,3.861-0.829"/>
				
					<path style="fill:none;stroke:#282828;stroke-width:0.75;stroke-linecap:round;stroke-linejoin:round;stroke-miterlimit:10;" d="
					M660.929,354.439c0,0,1.259,14.482,1.346,19.323"/>
				
					<path style="fill:none;stroke:#282828;stroke-width:0.75;stroke-linecap:round;stroke-linejoin:round;stroke-miterlimit:10;" d="
					M654.973,334.068c0.577,0.616,1.155,1.232,1.732,1.848"/>
				<path style="fill:#7684D6;" d="M667.127,373.432c0.535,0.037,1.065,0.139,1.574,0.306c0.592,0.194,1.191,0.326,1.429,0.947
					c0.237,0.619,0.155,1.343-0.004,1.971c-0.233,0.917-0.608,1.865-0.362,2.779c-1.388,0.063-2.775,0.125-4.163,0.188
					c-0.328,0.015-0.828,0.09-1.135-0.057c-0.385-0.185-0.325-0.6-0.389-1.017c-0.156-1.01-0.313-2.02-0.469-3.031
					c-0.052-0.333-0.101-0.686,0.029-0.997c0.178-0.424,0.638-0.651,1.075-0.794C665.488,373.473,666.313,373.376,667.127,373.432z"
					/>
				<g>
					<path style="fill:#F3978E;" d="M662.731,382.664c-0.086,0.31-0.135,0.691,0.102,0.909c0.245,0.224,0.642,0.127,0.926-0.045
						c0.666-0.403,1.849-2.268,0.745-2.838C663.49,380.167,662.898,382.063,662.731,382.664z"/>
					<path style="fill:#FFB1A5;" d="M663.934,382.453c0.745,1.62,2.662,2.328,4.282,1.583c1.62-0.745,2.328-2.662,1.583-4.282
						c-0.745-1.62-2.662-2.328-4.282-1.583C663.898,378.917,663.189,380.834,663.934,382.453z"/>
				</g>
			</g>
			<g>
				<g>
					<g>
						<path style="fill:#F3978E;" d="M639.323,301.533c0,0-0.263-1.9-2.092-1.556c-1.828,0.344-2.698,5.816-0.529,7.201
							c0,0,0.773,0.51,1.68-0.086C638.383,307.093,638.971,303.034,639.323,301.533z"/>
						<g>
							<g>
								
									<path style="fill:none;stroke:#282828;stroke-width:1.3968;stroke-linecap:round;stroke-linejoin:round;stroke-miterlimit:10;" d="
									M636.986,301.926c0,0,1.507-0.206,1.641,2.748"/>
							</g>
						</g>
					</g>
					<path style="fill:#FFB1A5;" d="M660.707,306.217c-0.899,2.483-1.834,5.24-4.725,7.712c-2.688,2.298-5.031,5.686-11.654,3.574
						c-3.739-1.192-5.668-2.015-6.834-6.328c-1.196-4.426,0.993-11.28,0.993-11.28s2.889-9.579,14.26-6.15
						C664.336,297.24,660.707,306.217,660.707,306.217z"/>
					<g>
						<path style="fill:#282828;" d="M637.205,305.048l0.989-10.55c0.131-0.844,0.194-2.189,0.933-3.247
							c1.223-1.751,4.688-4.777,8.171-1.863l-0.323,4.198c0,0-4.406-0.414-7.71,4.516L637.205,305.048z"/>
						<path style="fill:#282828;" d="M647.298,289.388c0,0,5.129-6.674,12.73-0.012c4.6,4.033,5.113,7.734,5.054,10.229
							c-0.02,0.829-0.299,2.06-0.572,2.759l-5.149,9.365l-4.143-16.354l-8.242-1.789L647.298,289.388z"/>
						<path style="fill:#282828;" d="M645.081,291.241c0,0,0.298,6.532,9.731,9.179c6.41,1.799,6.542,6.869,6.542,6.869
							s2-10.644,1.679-10.634c-0.321,0.009-8.94-5.434-8.94-5.434L645.081,291.241z"/>
						<path style="fill:#282828;" d="M656.166,299.965c0,0-1.291,3.999,0.606,5.303c1.896,1.305,0.333,5.383,0.333,5.383
							l2.256,1.078l3.787-7.278L656.166,299.965z"/>
					</g>
				</g>
				<g>
					<path style="fill:#282828;" d="M641.6,302.518c-0.17,0.563-0.763,0.881-1.326,0.711c-0.563-0.17-0.881-0.763-0.711-1.326
						c0.17-0.563,0.763-0.881,1.326-0.711C641.451,301.362,641.77,301.956,641.6,302.518z"/>
					<path style="fill:#282828;" d="M650.682,305.429c-0.17,0.563-0.763,0.881-1.326,0.711c-0.563-0.17-0.881-0.763-0.711-1.326
						c0.17-0.563,0.763-0.881,1.326-0.711C650.534,304.273,650.852,304.866,650.682,305.429z"/>
					
						<path style="fill:none;stroke:#282828;stroke-width:0.75;stroke-linecap:round;stroke-linejoin:round;stroke-miterlimit:10;" d="
						M644.697,303.787c-0.115,0.557-0.801,0.759-1.369,0.792c-0.568,0.033-1.23,0.049-1.565,0.508
						c-0.3,0.411-0.172,1.018,0.155,1.409c0.327,0.39,0.806,0.614,1.269,0.827"/>
					
						<path style="fill:none;stroke:#282828;stroke-width:0.75;stroke-linecap:round;stroke-linejoin:round;stroke-miterlimit:10;" d="
						M640.416,297.173c0.784-0.593,1.987-0.54,2.716,0.118"/>
					
						<path style="fill:none;stroke:#282828;stroke-width:0.75;stroke-linecap:round;stroke-linejoin:round;stroke-miterlimit:10;" d="
						M650.668,299.062c1.155,0.519,2.054,1.578,2.378,2.802"/>
				</g>
				<g>
					<g>
						<path style="fill:none;stroke:#282828;stroke-width:0.5;stroke-linecap:round;stroke-miterlimit:10;" d="M659.186,307.523
							c-1.463,0.957-2.925,1.914-4.388,2.871"/>
						<path style="fill:none;stroke:#282828;stroke-width:0.5;stroke-linecap:round;stroke-miterlimit:10;" d="M657.462,312.556
							c-1.455,1.597-2.909,3.194-4.364,4.791"/>
						<path style="fill:#FFFFFF;stroke:#282828;stroke-width:0.5;stroke-miterlimit:10;" d="M655.233,310.21l-11.86-5.549
							l-6.364,0.119c0,0-4.081,8.967,5.434,13.084c0,0,4.369,2.261,10.805-0.471L655.233,310.21z"/>
						<path style="fill:none;stroke:#282828;stroke-width:0.5;stroke-linecap:round;stroke-miterlimit:10;" d="M651.031,311.42
							c-4.14-2.286-8.748-3.719-13.454-4.184"/>
						<path style="fill:none;stroke:#282828;stroke-width:0.5;stroke-linecap:round;stroke-miterlimit:10;" d="M650.382,313.849
							c-4.091-1.246-8.181-2.493-12.272-3.739"/>
						<path style="fill:none;stroke:#282828;stroke-width:0.5;stroke-linecap:round;stroke-miterlimit:10;" d="M649.511,315.908
							c-3.928,0.273-7.941-0.918-11.084-3.289"/>
					</g>
					<g>
						<path style="fill:#F3978E;" d="M656.771,313.108c2.006,1.979,7.599-3.519,5.679-5.593c-1.92-2.074-3.841,0.43-3.841,0.43
							l-1.153,1.72l-0.994,2.415L656.771,313.108z"/>
						<g>
							<g>
								
									<path style="fill:none;stroke:#282828;stroke-width:0.9928;stroke-linecap:round;stroke-linejoin:round;stroke-miterlimit:10;" d="
									M661.18,309.571c0,0-1.588-0.87-3.283,0.897"/>
							</g>
						</g>
					</g>
				</g>
			</g>
		</g>
		<g>
			<path style="fill:#282828;" d="M392.393,293.533h-54.569c-4.384,0-7.937-3.554-7.937-7.937v-28.028
				c0-4.384,3.554-7.937,7.937-7.937h54.569c4.384,0,7.937,3.554,7.937,7.937v28.028
				C400.331,289.98,396.777,293.533,392.393,293.533z"/>
			<g>
				<g>
					<g>
						<path style="fill:#FFB1A5;" d="M403.13,269.252c-1.55-2.474-10.255-2.386-10.714-2.44c-2.353-0.276,1.509,18.451,6.405,34.82
							c0.939,3.138,4.392,4.773,7.407,3.494c0.033-0.014,0.065-0.028,0.098-0.041c2.386-1.011,3.743-3.543,3.263-6.089
							C407.26,286.644,404.922,272.112,403.13,269.252z"/>
					</g>
					<polygon style="fill:#282828;" points="405.205,276.024 394.091,280.337 393.049,275.064 404.558,272.193 					"/>
				</g>
				<g>
					<g>
						<path style="fill:#FFB1A5;" d="M341.277,269.252c1.55-2.474,10.255-2.386,10.714-2.44c2.353-0.276-1.509,18.451-6.405,34.82
							c-0.939,3.138-4.392,4.773-7.407,3.494c-0.033-0.014-0.065-0.028-0.098-0.041c-2.386-1.011-3.743-3.543-3.263-6.089
							C337.146,286.644,339.484,272.112,341.277,269.252z"/>
					</g>
					<polygon style="fill:#282828;" points="339.202,276.024 350.316,280.337 351.358,275.064 339.849,272.193 					"/>
				</g>
				<g>
					<path style="fill:#56EDDE;" d="M395.188,279.316l11.203-6.008c-1.862-10.068-9.991-22.449-9.991-22.449
						s-19.732-10.775-19.435-10.773h-3.793h-1.357h-3.793c0.285-0.002-18.353,10.773-18.353,10.773s-9.059,11.561-11.073,22.449
						l11.203,6.008l3.177,27.085l-6.701,41.626c0,0,8.374,6.181,26.318,6.181c17.944,0,26.119-5.383,26.119-5.383l-7.47-42.424
						L395.188,279.316z"/>
					<g>
						<g>
							
								<line style="fill:none;stroke:#282828;stroke-width:0.75;stroke-linecap:round;stroke-linejoin:round;stroke-miterlimit:10;" x1="395.188" y1="279.316" x2="396.49" y2="264.935"/>
						</g>
					</g>
					<g>
						<g>
							
								<line style="fill:none;stroke:#282828;stroke-width:0.75;stroke-linecap:round;stroke-linejoin:round;stroke-miterlimit:10;" x1="349.8" y1="279.316" x2="348.499" y2="264.935"/>
						</g>
					</g>
					
						<line style="fill:none;stroke:#282828;stroke-width:0.75;stroke-linecap:round;stroke-linejoin:round;stroke-miterlimit:10;" x1="360.254" y1="245.108" x2="370.877" y2="263.476"/>
					
						<line style="fill:none;stroke:#282828;stroke-width:0.75;stroke-linecap:round;stroke-linejoin:round;stroke-miterlimit:10;" x1="375.571" y1="260.161" x2="381.124" y2="250.797"/>
					
						<line style="fill:none;stroke:#282828;stroke-width:0.75;stroke-linecap:round;stroke-linejoin:round;stroke-miterlimit:10;" x1="372.421" y1="265.277" x2="372.421" y2="273.305"/>
					
						<path style="fill:none;stroke:#282828;stroke-width:0.75;stroke-linecap:round;stroke-linejoin:round;stroke-miterlimit:10;" d="
						M385.011,310.342c2.627-0.804,5.078-2.176,7.137-3.995"/>
					
						<path style="fill:none;stroke:#282828;stroke-width:0.75;stroke-linecap:round;stroke-linejoin:round;stroke-miterlimit:10;" d="
						M385.965,312.817c1.578-1.049,3.156-2.098,4.734-3.147"/>
					
						<path style="fill:none;stroke:#282828;stroke-width:0.75;stroke-linecap:round;stroke-linejoin:round;stroke-miterlimit:10;" d="
						M352.158,308.493c2.9,1.414,6.044,2.327,9.25,2.686"/>
					
						<path style="fill:none;stroke:#282828;stroke-width:0.75;stroke-linecap:round;stroke-linejoin:round;stroke-miterlimit:10;" d="
						M355.304,312.331c2.58,0.411,5.159,0.822,7.739,1.234"/>
				</g>
				<g>
					<polygon style="fill:#FFB1A5;" points="378.945,241.241 378.945,228.8 365.414,228.8 365.538,241.375 361.937,243.598 
						372.393,261.502 383.083,243.597 					"/>
					<path style="fill:#282828;" d="M365.414,231.821c0,0,3.597,6.724,10.024,6.172c5.907-0.507,3.779-9.699,3.779-9.699
						l-13.803,0.832V231.821z"/>
				</g>
				<g>
					<g>
						<path style="fill:#F3978E;" d="M388.273,220.719c2.016,1.276,3.195-6.842,1.193-8.254c-2.002-1.413-2.159,2.028-2.159,2.028
							l-0.007,2.295l0.37,2.967l0.108,0.773L388.273,220.719z"/>
						<g>
							<g>
								
									<path style="fill:none;stroke:#282828;stroke-width:0.9928;stroke-linecap:round;stroke-linejoin:round;stroke-miterlimit:10;" d="
									M389.524,215.164c0,0-1.315-0.272-1.632,2.295"/>
							</g>
						</g>
					</g>
					<g>
						<path style="fill:#282828;" d="M388.102,205.817c3.015,9.083-2.48,15.689-11.022,18.525
							c-8.542,2.836-16.897,0.828-19.912-8.255c-3.016-9.083,1.858-17.561,10.4-20.397
							C376.11,192.854,385.086,196.734,388.102,205.817z"/>
						<path style="fill:#FFB1A5;" d="M386.209,207.146c1.851,5.576,2.661,10.649,3.008,14.325c0.34,3.599-1.051,6.655-3.488,9.552
							l-0.444,0.528c-2.579,3.065-6.749,4.501-10.675,3.676l0,0c-3.96-0.833-7.129-2.611-9.035-5.962
							c-3.466-6.094-6.008-13.274-6.008-13.274s-5.91-13.665,8.549-18.162C382.575,193.333,386.209,207.146,386.209,207.146z"/>
						<path style="fill:#282828;" d="M364.117,224.011c0,0,0.027-10.178-6.01-16.028c0,0-2.279,4.483,0.236,9.877
							C360.859,223.254,364.117,224.011,364.117,224.011z"/>
						<path style="fill:#282828;" d="M357.622,207.902c0,0,10.057,5.626,29.779-2.456c0,0-7.024-10.824-17.223-8.839
							C370.178,196.607,358.437,199.008,357.622,207.902z"/>
						<path style="fill:#282828;" d="M347.954,213.729c3.649,4.257,10.058,4.751,14.316,1.102
							c4.257-3.649,4.751-10.058,1.102-14.316c-3.649-4.257-10.058-4.751-14.316-1.102
							C344.799,203.062,344.305,209.471,347.954,213.729z"/>
					</g>
					<g>
						
							<path style="fill:none;stroke:#282828;stroke-width:0.75;stroke-linecap:round;stroke-linejoin:round;stroke-miterlimit:10;" d="
							M378.728,216.912c0.227,1.143,0.671,2.137,1.213,3.153c0.31,0.582,0.505,1.436-0.54,1.5c-0.001,0-0.972,0.06-0.972,0.06"/>
						<path style="fill:#282828;" d="M379.848,210.454l7.696-0.697c0,0-0.928-1.71-4.068-1.4
							C380.336,208.666,379.848,210.454,379.848,210.454z"/>
						<path style="fill:#282828;" d="M372.832,212.433l-6.339,3.963c0,0-0.29-1.921,2.311-3.518S372.832,212.433,372.832,212.433z"
							/>
						<path style="fill:#282828;" d="M383.854,215.383c0.22,0.663,0.938,1.022,1.603,0.801s1.026-0.938,0.806-1.601
							c-0.22-0.663-0.938-1.022-1.603-0.801S383.633,214.72,383.854,215.383z"/>
						<path style="fill:#282828;" d="M372.24,218.678c0.22,0.663,0.938,1.022,1.603,0.801c0.665-0.221,1.026-0.938,0.806-1.601
							c-0.22-0.663-0.938-1.022-1.603-0.801S372.019,218.015,372.24,218.678z"/>
						<g>
							<path style="fill:none;stroke:#282828;stroke-width:0.5;stroke-miterlimit:10;" d="M379.501,217.026
								c0.852,2.855,3.858,4.479,6.714,3.627c2.855-0.852,4.479-3.858,3.627-6.714c-0.852-2.855-3.858-4.479-6.714-3.627
								C380.272,211.164,378.649,214.17,379.501,217.026z"/>
							<path style="fill:none;stroke:#282828;stroke-width:0.5;stroke-miterlimit:10;" d="M366.8,220.817
								c0.852,2.856,3.858,4.479,6.714,3.627c2.855-0.852,4.479-3.858,3.627-6.714c-0.852-2.855-3.858-4.479-6.714-3.627
								C367.571,214.956,365.947,217.962,366.8,220.817z"/>
							<path style="fill:none;stroke:#282828;stroke-width:0.5;stroke-miterlimit:10;" d="M379.501,217.026
								c0,0-1.566-0.777-2.361,0.705"/>
							
								<line style="fill:none;stroke:#282828;stroke-width:0.5;stroke-miterlimit:10;" x1="389.841" y1="213.939" x2="388.277" y2="214.18"/>
							
								<line style="fill:none;stroke:#282828;stroke-width:0.5;stroke-miterlimit:10;" x1="366.8" y1="220.817" x2="361.408" y2="221.407"/>
						</g>
					</g>
					<g>
						<g>
							<path style="fill:none;stroke:#282828;stroke-width:0.5;stroke-linecap:round;stroke-miterlimit:10;" d="M362.405,221.677
								c1.722,1.163,3.444,2.326,5.167,3.489"/>
							<path style="fill:none;stroke:#282828;stroke-width:0.5;stroke-linecap:round;stroke-miterlimit:10;" d="M364.368,227.69
								c1.702,1.924,3.403,3.847,5.105,5.771"/>
							<path style="fill:#FFFFFF;stroke:#282828;stroke-width:0.5;stroke-miterlimit:10;" d="M367.058,224.94l12.232-5.861
								l9.525-0.279c0,0,4.697,10.73-6.686,15.46c0,0-5.232,2.613-12.836-0.746L367.058,224.94z"/>
							<path style="fill:none;stroke:#282828;stroke-width:0.5;stroke-linecap:round;stroke-miterlimit:10;" d="M372.032,226.451
								c4.961-2.646,10.463-4.27,16.065-4.742"/>
							<path style="fill:none;stroke:#282828;stroke-width:0.5;stroke-linecap:round;stroke-miterlimit:10;" d="M372.762,229.35
								c4.884-1.411,9.768-2.822,14.653-4.234"/>
							<path style="fill:none;stroke:#282828;stroke-width:0.5;stroke-linecap:round;stroke-miterlimit:10;" d="M373.761,231.811
								c4.665,0.393,9.456-0.954,13.233-3.719"/>
						</g>
						<g>
							<path style="fill:#F3978E;" d="M365.18,228.359c-2.419,2.317-8.972-4.315-6.654-6.747c2.318-2.432,4.558,0.577,4.558,0.577
								l1.34,2.064l1.141,2.888L365.18,228.359z"/>
							<g>
								<g>
									
										<path style="fill:none;stroke:#282828;stroke-width:0.9928;stroke-linecap:round;stroke-linejoin:round;stroke-miterlimit:10;" d="
										M359.999,224.077c0,0,1.903-1.007,3.887,1.123"/>
								</g>
							</g>
						</g>
					</g>
				</g>
				<g>
					<g>
						<path style="fill:#FFB1A5;" d="M387.84,295.526c0,0,11.303-1.61,16.952-1.255c2.586,0.163,4.601,2.323,4.871,4.899
							c0.004,0.035,0.007,0.07,0.011,0.106c0.342,3.258-2.23,6.083-5.505,6.064c-4.873-0.028-14.538-2.039-14.538-2.039
							L387.84,295.526z"/>
					</g>
					
						<path style="fill:none;stroke:#282828;stroke-width:0.75;stroke-linecap:round;stroke-linejoin:round;stroke-miterlimit:10;" d="
						M403.191,294.32c-2.084-0.359-4.252-0.222-6.275,0.397"/>
					<path style="fill:#F3978E;" d="M381.188,303.542c-0.177,0.559-0.29,1.252,0.129,1.664c0.432,0.425,1.163,0.272,1.691-0.023
						c1.241-0.694,3.516-4.02,1.537-5.13C382.73,299.035,381.532,302.454,381.188,303.542z"/>
					<path style="fill:#FFB1A5;" d="M383.396,303.233c1.257,3.001,4.71,4.414,7.711,3.157c3.001-1.257,4.414-4.71,3.157-7.711
						c-1.257-3.001-4.709-4.414-7.71-3.157C383.553,296.779,382.139,300.232,383.396,303.233z"/>
				</g>
				<g>
					<g>
						<path style="fill:#FFB1A5;" d="M356.475,295.526c0,0-11.303-1.61-16.952-1.255c-2.586,0.163-4.601,2.323-4.871,4.899
							c-0.004,0.035-0.007,0.07-0.011,0.106c-0.342,3.258,2.23,6.083,5.505,6.064c4.873-0.028,14.538-2.039,14.538-2.039
							L356.475,295.526z"/>
					</g>
					<path style="fill:#757C8B;stroke:#282828;stroke-miterlimit:10;" d="M359.527,302.234h-0.548c-2.233,0-4.043,1.81-4.043,4.043
						l0,0h8.635l0,0C363.57,304.044,361.76,302.234,359.527,302.234z"/>
					
						<path style="fill:none;stroke:#282828;stroke-width:0.75;stroke-linecap:round;stroke-linejoin:round;stroke-miterlimit:10;" d="
						M341.124,294.32c2.084-0.359,4.252-0.222,6.274,0.397"/>
					<path style="fill:#F3978E;" d="M363.47,300.516c0.379,0.448,0.751,1.043,0.524,1.584c-0.234,0.559-0.967,0.7-1.569,0.632
						c-1.412-0.16-4.797-2.349-3.4-4.138C360.306,296.955,362.733,299.646,363.47,300.516z"/>
					<path style="fill:#FFB1A5;" d="M361.314,301.084c0,3.254-2.638,5.891-5.892,5.891c-3.254,0-5.892-2.638-5.892-5.891
						c0-3.254,2.638-5.892,5.892-5.892C358.676,295.193,361.314,297.831,361.314,301.084z"/>
				</g>
			</g>
			<g>
				<rect x="237.709" y="306.663" style="fill:#FFFFFF;" width="277.447" height="147.138"/>
				<rect x="237.709" y="370.135" style="fill:#005683;" width="277.447" height="20.195"/>
				
					<rect x="237.709" y="306.663" style="fill:#282828;stroke:#282828;stroke-width:1.3;stroke-miterlimit:10;" width="277.447" height="12.245"/>
				
					<rect x="227.611" y="306.663" style="fill:#005683;stroke:#005683;stroke-width:2;stroke-miterlimit:10;" width="297.642" height="6.251"/>
				<g>
					<circle style="fill:#FFFFFF;stroke:#282828;stroke-width:1.3;stroke-miterlimit:10;" cx="376.432" cy="383.574" r="41.392"/>
					<g>
						<rect x="369.598" y="355.492" style="fill:#FF6176;" width="13.669" height="56.164"/>
						
							<rect x="369.598" y="355.492" transform="matrix(-1.836970e-16 1 -1 -1.836970e-16 760.0064 7.1419)" style="fill:#FF6176;" width="13.67" height="56.164"/>
					</g>
				</g>
			</g>
			<g>
				<g>
					<path style="fill:#757C8B;stroke:#282828;stroke-miterlimit:10;" d="M467.232,298.271h-66.745c-1.387,0-2.415-1.287-2.11-2.639
						l9.713-43.046c0.223-0.986,1.099-1.687,2.11-1.687h66.745c1.387,0,2.415,1.287,2.11,2.639l-9.713,43.046
						C469.119,297.57,468.243,298.271,467.232,298.271z"/>
					<polygon style="fill:#757C8B;stroke:#282828;stroke-miterlimit:10;" points="447.953,288.805 446.804,293.897 465.957,293.897 
						467.107,288.805 					"/>
					<polygon style="fill:#757C8B;stroke:#282828;stroke-miterlimit:10;" points="440.247,306.277 448.511,269.652 435.874,269.652 
						427.61,306.277 					"/>
					<path style="fill:#757C8B;stroke:#282828;stroke-miterlimit:10;" d="M452.433,303.705h-35.896
						c-1.421,0-2.572,1.152-2.572,2.572l0,0h41.04l0,0C455.005,304.857,453.853,303.705,452.433,303.705z"/>
					<path style="fill:none;stroke:#282828;stroke-miterlimit:10;" d="M438.047,274.61c-1.942,8.454-3.884,16.909-5.826,25.363"/>
					<line style="fill:none;stroke:#282828;stroke-miterlimit:10;" x1="410.476" y1="256.165" x2="401.989" y2="291.432"/>
					<path style="fill:#282828;" d="M451.77,291.552c0,0.557-0.452,1.009-1.009,1.009c-0.557,0-1.009-0.452-1.009-1.009
						c0-0.557,0.452-1.009,1.009-1.009C451.318,290.543,451.77,290.994,451.77,291.552z"/>
					<path style="fill:#282828;" d="M455.898,291.552c0,0.557-0.452,1.009-1.009,1.009c-0.557,0-1.009-0.452-1.009-1.009
						c0-0.557,0.452-1.009,1.009-1.009C455.446,290.543,455.898,290.994,455.898,291.552z"/>
					<circle style="fill:#282828;" cx="459.017" cy="291.552" r="1.009"/>
					<circle style="fill:#282828;" cx="463.145" cy="291.552" r="1.009"/>
				</g>
				<path style="fill:#757C8B;stroke:#282828;stroke-miterlimit:10;" d="M403.539,303.705h-35.896c-1.421,0-2.572,1.152-2.572,2.572
					l0,0h41.04l0,0C406.111,304.857,404.96,303.705,403.539,303.705z"/>
				<path style="fill:none;stroke:#282828;stroke-miterlimit:10;" d="M361.208,305.518c12.15,4.654,25.424,6.344,38.353,4.882
					c7.358-0.832,14.563-2.66,21.74-4.483"/>
			</g>
		</g>
		<g>
			<ellipse style="fill:#98C5ED;" cx="564.623" cy="452.798" rx="33.383" ry="7.977"/>
			<g>
				<g>
					<polygon style="fill:#FFB1A5;" points="577.149,421.972 580.299,440.353 586.878,440.353 589.633,419.62 					"/>
					<polygon style="fill:#FFB1A5;" points="556.378,422.191 558.232,442.417 566.283,442.175 567.73,419.378 					"/>
					<path style="fill:#282828;" d="M592.405,287.009l-37.59-1.628c0,0-8.119,14.582-4.612,78.07l6.258,60.713
						c0.262,2.848,2.651,5.027,5.511,5.027l0,0c2.977,0,5.421-2.355,5.531-5.33l1.708-37.03l-1.494-23.379l2.171-49.171
						l2.553,47.664l4.653,62.083c0.195,2.906,2.609,5.164,5.522,5.164h1.196c2.998,0,5.451-2.387,5.533-5.384l1.886-61.863
						C601.115,300.063,592.405,287.009,592.405,287.009z"/>
				</g>
				<g>
					<path style="fill:#282828;" d="M567.45,445.448c-5.842-1.277-10.094-0.841-16.052-0.398c-2.432,0.181-4.865,0.361-7.297,0.542
						c-0.637,0.047-1.279,0.057-1.873,0.136c-0.728,0.406-1.829,1.133-1.829,1.133s-0.635,0.681-0.723,1.074
						c-0.244,1.089,0.112,2.297,0.904,3.067c1.235,1.202,3.146,1.196,4.851,1.117c6.513-0.304,11.224-0.609,17.738-0.913
						c1.134-0.053,2.358-0.14,3.228-0.886C567.697,449.204,567.629,447.174,567.45,445.448z"/>
					<path style="fill:#ED5679;" d="M566.379,437.378c-0.922,0.073-1.317,1.165-1.699,2.008c-0.514,1.134-1.665,2.208-2.865,1.877
						c-2.461-0.681-2.512-5.675-5.694-3.009c-0.707,0.592-1.428,1.149-2.212,1.638c-1.568,0.978-3.256,1.732-4.905,2.557
						c-1.46,0.73-3.052,1.289-4.47,2.09c-1.2,0.678-2.533,1.076-3.703,1.828c-0.422,0.272-0.848,0.607-0.993,1.087
						c-0.17,0.559,0.099,1.176,0.519,1.581c0.57,0.548,1.264,0.734,1.976,0.951c1.161,0.347,2.403,0.258,3.612,0.166
						c7.132-0.544,12.423-1.089,19.555-1.633c0.394-0.03,0.8-0.063,1.151-0.243c0.98-0.502,1.098-1.831,1.086-2.933
						C567.721,443.89,568.592,437.203,566.379,437.378z"/>
					<circle style="fill:#282828;" cx="562.472" cy="444.298" r="1.915"/>
					<path style="fill:none;stroke:#282828;stroke-linecap:round;stroke-miterlimit:10;" d="M553.032,440.185
						c0.432,0.117,0.865,0.234,1.297,0.351"/>
					<path style="fill:none;stroke:#282828;stroke-linecap:round;stroke-miterlimit:10;" d="M550.457,441.715
						c0.514,0.177,1.029,0.355,1.543,0.532"/>
					<path style="fill:none;stroke:#282828;stroke-linecap:round;stroke-miterlimit:10;" d="M547.877,443.108
						c0.297,0.108,0.594,0.216,0.891,0.324"/>
				</g>
				<g>
					<path style="fill:#282828;" d="M578.256,450.176c-0.104,0.527-0.207,1.077-0.059,1.593c0.193,0.673,0.793,1.167,1.448,1.415
						c0.655,0.248,1.367,0.287,2.066,0.323c1.754,0.091,3.509,0.183,5.263,0.275c1.467,0.076,3.261-0.023,3.938-1.327
						c0.345-0.665,0.275-1.463,0.14-2.2c-0.461-2.503-1.595-4.878-3.251-6.81c-1.124-1.311-2.555-2.453-4.246-2.802
						c-1.895-0.391-3.77,0.217-4.059,2.18C579.134,445.282,578.74,447.724,578.256,450.176z"/>
					<path style="fill:#ED5679;" d="M579.352,442.47c-0.157,1.974-0.315,3.948-0.472,5.922c-0.043,0.543-0.082,1.114,0.146,1.609
						c0.493,1.071,1.906,1.26,3.084,1.301c1.79,0.063,3.58,0.126,5.37,0.189c1.159,0.041,2.588-0.076,3.065-1.133
						c0.287-0.636,0.092-1.374-0.106-2.043c-0.444-1.501-0.888-3.003-1.333-4.504c-0.392-1.324-0.79-2.663-1.482-3.858
						c-0.692-1.195-1.717-2.252-3.022-2.705C580.671,435.879,579.591,439.466,579.352,442.47z"/>
					<path style="fill:#ED5679;" d="M582.413,435.329c0.992-0.741,2.437-0.939,3.481-0.274c1.273,0.811,1.576,2.53,1.562,4.04
						c-0.009,0.991-0.167,2.107-0.963,2.699c-1.175,0.875-5.108,0.66-5.891-0.747C579.704,439.431,581.016,436.29,582.413,435.329z"
						/>
					
						<line style="fill:none;stroke:#282828;stroke-linecap:round;stroke-miterlimit:10;" x1="582.776" y1="443.79" x2="585.108" y2="443.79"/>
					<path style="fill:#282828;" d="M588.594,451.931c0.041,0.1-7.996,2.177-5.917-1.32
						C584.179,448.084,587.608,449.484,588.594,451.931z"/>
					<path style="fill:none;stroke:#282828;stroke-linecap:round;stroke-miterlimit:10;" d="M582.515,442.109
						c0.714-0.018,1.428-0.037,2.142-0.055"/>
					<path style="fill:none;stroke:#282828;stroke-linecap:round;stroke-miterlimit:10;" d="M582.35,440.553
						c0.769-0.055,1.538-0.11,2.307-0.165"/>
					<path style="fill:none;stroke:#282828;stroke-linecap:round;stroke-miterlimit:10;" d="M582.129,445.878
						c1.646-0.235,3.326-0.224,4.969,0.032c0.512,0.08,1.027,0.185,1.494,0.411c0.467,0.226,0.885,0.585,1.094,1.06"/>
				</g>
			</g>
			<polygon style="fill:#282828;" points="589.751,230 556.181,230 552.618,177.162 585.259,177.162 			"/>
			<g>
				<g>
					<path style="fill:#DE5172;" d="M551.799,223.542l-7.447,39.148l-26.677,17.51c0,0-2.927,3.446-1.784,8.794
						c1.533,7.172,7.018,6.022,7.018,6.022l37.418-19.698l9.297-48.386c0.741-4.389-1.81-8.668-6.024-10.102l0,0
						C558.451,215.077,552.926,218.219,551.799,223.542z"/>
					<path style="fill:#BD4561;" d="M523.212,286.353c0.398,0.893,0.688,1.835,0.855,2.798c0.195,1.121,0.494,2.199-0.303,3.115
						c-0.795,0.913-2.033,1.4-3.18,1.68c-1.678,0.41-3.527,0.617-4.79,1.795c-1.289-2.183-2.577-4.366-3.866-6.549
						c-0.305-0.516-0.855-1.258-0.88-1.879c-0.031-0.78,0.689-1.037,1.306-1.498c1.495-1.117,2.989-2.233,4.484-3.35
						c0.493-0.368,1.02-0.75,1.632-0.806c0.836-0.077,1.596,0.47,2.2,1.052C521.744,283.746,522.605,284.992,523.212,286.353z"/>
					
						<path style="fill:none;stroke:#282828;stroke-width:0.75;stroke-linecap:round;stroke-linejoin:round;stroke-miterlimit:10;" d="
						M544.723,262.706c1.588,0.773,2.915,2.073,3.72,3.645"/>
					
						<path style="fill:none;stroke:#282828;stroke-width:0.75;stroke-linecap:round;stroke-linejoin:round;stroke-miterlimit:10;" d="
						M544.491,262.802c0.452,1.523,0.905,3.045,1.358,4.568"/>
				</g>
				<g>
					<path style="fill:#F3978E;" d="M508.586,284.915c-0.541-0.226-1.221-0.4-1.668-0.02c-0.462,0.392-0.375,1.133-0.128,1.687
						c0.58,1.298,3.69,3.861,4.972,1.988C512.937,286.853,509.638,285.355,508.586,284.915z"/>
					<g>
						
							<rect x="508.183" y="264.726" transform="matrix(0.9701 -0.2425 0.2425 0.9701 -53.1049 134.77)" style="fill:#FFE3A5;" width="25.276" height="36.694"/>
						
							<polyline style="fill:none;stroke:#282828;stroke-width:0.75;stroke-linecap:round;stroke-linejoin:round;stroke-miterlimit:10;" points="
							504.652,268.67 519.727,277.628 528.434,262.706 						"/>
					</g>
					<path style="fill:#FFB1A5;" d="M508.697,287.142c-3.101,0.984-4.817,4.297-3.833,7.398c0.985,3.101,4.297,4.817,7.398,3.833
						c3.101-0.985,4.817-4.297,3.833-7.398C515.11,287.874,511.798,286.158,508.697,287.142z"/>
				</g>
			</g>
			<g>
				<g>
					<path style="fill:#ED5679;" d="M585.199,231.622c6.579-1.525,16.083-9.067,12.018-17.673c-1.158-2.451-3.171-4.233-5.322-5.581
						c-6.647-4.164-14.916-4.625-22.448-2.306c-2.055,0.633-4.092,1.475-5.881,2.819c-1.869,1.405-3.719,3.433-3.843,6.012
						c-0.127,2.649-0.202,5.194,0.921,7.568c1.728,3.654,5.198,5.764,8.651,7.207C574.319,231.767,579.844,232.864,585.199,231.622z
						"/>
					<path style="fill:#ED5679;" d="M574.525,208.029c0,0,17.607,2.158,23.333,22.879v69.715c0,0-9.052,7.448-25.929,7.448
						c-16.031,0-22.5-7.448-22.5-7.448l3.57-37.557c-1.398-16.779-1.452-39.931,2.832-45.48c6.509-8.431,14.343-9.557,14.343-9.557
						H574.525z"/>
					
						<path style="fill:none;stroke:#282828;stroke-width:0.75;stroke-linecap:round;stroke-linejoin:round;stroke-miterlimit:10;" d="
						M554.109,250.869c5.516,16.667,17.647,31.044,33.149,39.284"/>
					
						<path style="fill:none;stroke:#282828;stroke-width:0.75;stroke-linecap:round;stroke-linejoin:round;stroke-miterlimit:10;" d="
						M559.307,279.311c4.166,6.691,9.649,12.558,16.043,17.167"/>
				</g>
				<polygon style="fill:#FFB1A5;" points="563.685,210.882 563.685,194.27 575.398,194.27 575.294,210.459 576.675,211.118 
					567.217,226.867 562.768,211.38 				"/>
				<path style="fill:#282828;" d="M575.398,201.063c0,0-3.113,6.337-8.677,5.817c-5.114-0.478-3.271-12.61-3.271-12.61h11.948
					V201.063z"/>
			</g>
			<g>
				<g>
					<path style="fill:#F3978E;" d="M553.529,192.549c-1.587,1.781-4.952-5.7-3.415-7.609c1.537-1.908,2.633,1.357,2.633,1.357
						l0.637,2.205l0.46,2.955l0.108,0.773L553.529,192.549z"/>
					<g>
						<g>
							
								<path style="fill:none;stroke:#282828;stroke-width:0.9928;stroke-linecap:round;stroke-linejoin:round;stroke-miterlimit:10;" d="
								M550.8,187.551c0,0,1.19-0.623,2.2,1.759"/>
						</g>
					</g>
				</g>
				<g>
					<path style="fill:#282828;" d="M549.556,179.185c-0.437,10.36,7.411,15.612,17.347,16.031
						c9.937,0.419,18.199-4.153,18.636-14.513c0.437-10.36-7.321-17.748-17.258-18.167
						C558.345,162.117,549.993,168.825,549.556,179.185z"/>
					<path style="fill:#FFB1A5;" d="M551.784,178.932c-0.247,5.87,0.368,10.97,1.044,14.6c0.662,3.554,2.839,6.11,5.979,8.226
						l0.572,0.385c3.322,2.239,7.726,2.473,11.274,0.601l0,0c3.578-1.889,6.137-4.47,7.048-8.215
						c1.658-6.812,2.129-14.414,2.129-14.414s1.927-14.763-13.211-15.113C551.482,164.651,551.784,178.932,551.784,178.932z"/>
					<path style="fill:#282828;" d="M577.66,189.076c0,0-2.823-9.779,1.374-17.063c0,0,3.423,3.684,2.487,9.562
						C580.584,187.452,577.66,189.076,577.66,189.076z"/>
					<path style="fill:#282828;" d="M550.69,181.2c0,0,7.123-2.849,9.687-12.441c0,0,3.989,12.536,18.235,11.682l2.909-0.654
						c0,0,1.934-17.011-16.3-17.485C565.22,162.301,550.405,161.731,550.69,181.2z"/>
				</g>
				<g>
					
						<path style="fill:none;stroke:#282828;stroke-width:0.75;stroke-linecap:round;stroke-linejoin:round;stroke-miterlimit:10;" d="
						M559.638,186.265c0.096,1.162-0.058,2.239-0.3,3.365c-0.138,0.645-0.091,1.52,0.932,1.294c0,0,0.951-0.21,0.951-0.21"/>
					<path style="fill:#282828;" d="M556.312,186.204c-0.029,0.698-0.621,1.24-1.321,1.211c-0.7-0.029-1.244-0.619-1.214-1.318
						c0.029-0.698,0.621-1.24,1.321-1.211C555.798,184.916,556.342,185.506,556.312,186.204z"/>
					<path style="fill:#282828;" d="M568.384,186.18c-0.029,0.698-0.621,1.24-1.321,1.211c-0.7-0.03-1.244-0.619-1.214-1.318
						c0.029-0.698,0.621-1.24,1.321-1.211C567.87,184.892,568.414,185.482,568.384,186.18z"/>
					
						<path style="fill:none;stroke:#282828;stroke-width:0.75;stroke-linecap:round;stroke-linejoin:round;stroke-miterlimit:10;" d="
						M567.827,180.522c0.992,0.229,1.929,0.696,2.709,1.351"/>
					
						<path style="fill:none;stroke:#282828;stroke-width:0.75;stroke-linecap:round;stroke-linejoin:round;stroke-miterlimit:10;" d="
						M552.163,182.508c0.84-1.09,2.118-1.833,3.481-2.024"/>
				</g>
				<g>
					<path style="fill:none;stroke:#282828;stroke-width:0.5;stroke-linecap:round;stroke-miterlimit:10;" d="M578.664,186.361
						c-1.336,1.591-2.673,3.183-4.009,4.774"/>
					<path style="fill:none;stroke:#282828;stroke-width:0.5;stroke-linecap:round;stroke-miterlimit:10;" d="M578.43,192.682
						c-1.107,2.317-2.215,4.634-3.323,6.951"/>
					<path style="fill:#FFFFFF;stroke:#282828;stroke-width:0.5;stroke-miterlimit:10;" d="M575.087,190.777l-15.404-2.245
						l-7.203,2.32c0,0-1.567,11.607,10.677,13.027c0,0,5.749,1.074,12.137-4.245L575.087,190.777z"/>
					<path style="fill:none;stroke:#282828;stroke-width:0.5;stroke-linecap:round;stroke-miterlimit:10;" d="M570.72,193.597
						c-5.497-1.181-11.234-1.23-16.75-0.144"/>
					<path style="fill:none;stroke:#282828;stroke-width:0.5;stroke-linecap:round;stroke-miterlimit:10;" d="M570.815,196.585
						c-5.084-0.015-10.168-0.029-15.252-0.044"/>
					<path style="fill:none;stroke:#282828;stroke-width:0.5;stroke-linecap:round;stroke-miterlimit:10;" d="M570.53,199.226
						c-4.377,1.66-9.354,1.682-13.746,0.061"/>
				</g>
				<g>
					<path style="fill:#F3978E;" d="M577.833,193.548c2.962,1.564,7.441-6.614,4.544-8.316c-2.897-1.702-4.224,1.808-4.224,1.808
						l-0.722,2.353l-0.303,3.091L577.833,193.548z"/>
					<g>
						<g>
							
								<path style="fill:none;stroke:#282828;stroke-width:0.9928;stroke-linecap:round;stroke-linejoin:round;stroke-miterlimit:10;" d="
								M581.638,188.008c0,0-2.106-0.445-3.429,2.148"/>
						</g>
					</g>
				</g>
			</g>
			<g>
				<path style="fill:#ED5679;" d="M579.715,226.33l13.987,44.792l6.011,37.694c0,0,0.078,3,7.401,3.407
					c7.322,0.408,8.671-3.791,8.671-3.791c-0.014-0.133-0.028-0.266-0.042-0.399c-0.393-3.723-0.786-7.446-1.179-11.169
					c-0.635-6.016-1.27-12.032-1.905-18.048c-0.282-2.673-0.564-5.346-0.846-8.018c-0.259-2.456,0.666-2.836-0.302-5.184
					c-1.005-2.44-1.975-4.827-2.746-7.338c-0.494-1.608-0.987-3.216-1.481-4.824c-1.512-4.924-2.175-6.237-3.687-11.162
					c-1.513-4.929-3.027-9.858-4.54-14.787c-0.689-2.244-1.378-4.487-2.067-6.731c-1.451-4.208-5.739-6.743-10.125-5.985
					C581.502,215.714,578.156,221.117,579.715,226.33z"/>
				
					<path style="fill:none;stroke:#282828;stroke-width:0.75;stroke-linecap:round;stroke-linejoin:round;stroke-miterlimit:10;" d="
					M581.841,232.096c4.121,10.756,6.664,22.44,12.136,38.908"/>
				
					<path style="fill:none;stroke:#282828;stroke-width:0.75;stroke-linecap:round;stroke-linejoin:round;stroke-miterlimit:10;" d="
					M593.961,271.165c2.157-3.571,6.012-6.062,10.154-6.563"/>
				
					<path style="fill:none;stroke:#282828;stroke-width:0.75;stroke-linecap:round;stroke-linejoin:round;stroke-miterlimit:10;" d="
					M594.096,270.92c1.93-1.528,4.463-2.273,6.914-2.033"/>
				
					<path style="fill:none;stroke:#282828;stroke-width:0.75;stroke-linecap:round;stroke-linejoin:round;stroke-miterlimit:10;" d="
					M594.134,271.317c0,0,4.259,26.185,5.075,34.986"/>
				
					<path style="fill:none;stroke:#282828;stroke-width:0.75;stroke-linecap:round;stroke-linejoin:round;stroke-miterlimit:10;" d="
					M580.526,235.051c1.134,1.042,2.269,2.085,3.404,3.127"/>
				
					<path style="fill:none;stroke:#282828;stroke-width:0.75;stroke-linecap:round;stroke-linejoin:round;stroke-miterlimit:10;" d="
					M587.06,213.639c5.265,0.448,8.646,3.828,10.688,10.203"/>
				<path style="fill:#BD4561;" d="M607.995,305.043c0.978-0.006,1.957,0.108,2.906,0.342c1.104,0.272,2.213,0.431,2.73,1.53
					c0.516,1.095,0.464,2.424,0.26,3.587c-0.299,1.701-0.853,3.478-0.282,5.107c-2.517,0.302-5.034,0.605-7.551,0.907
					c-0.595,0.072-1.496,0.277-2.074,0.05c-0.727-0.285-0.673-1.047-0.847-1.798c-0.422-1.817-0.843-3.635-1.265-5.452
					c-0.139-0.599-0.277-1.235-0.082-1.819c0.266-0.796,1.072-1.272,1.848-1.591C605.018,305.339,606.506,305.052,607.995,305.043z"
					/>
				<g>
					<path style="fill:#F3978E;" d="M601.247,322.443c-0.115,0.575-0.152,1.276,0.309,1.64c0.476,0.375,1.185,0.144,1.679-0.207
						c1.158-0.824,3.058-4.379,0.969-5.267C602.29,317.795,601.471,321.325,601.247,322.443z"/>
					<path style="fill:#FFB1A5;" d="M603.409,321.896c1.576,2.846,5.162,3.876,8.008,2.299c2.846-1.576,3.876-5.162,2.3-8.008
						c-1.576-2.846-5.162-3.876-8.008-2.299C602.862,315.464,601.833,319.049,603.409,321.896z"/>
				</g>
			</g>
		</g>
		<path style="fill:none;stroke:#FFFFFF;stroke-width:0.5;stroke-miterlimit:10;" d="M553.337,313.746
			c1.654,3.866,5.819,6.509,10.021,6.36"/>
		<path style="fill:none;stroke:#FFFFFF;stroke-width:0.5;stroke-miterlimit:10;" d="M522.377,318.639
			c3.521-0.543,6.817-2.431,9.066-5.193"/>
		<g>
			<ellipse style="fill:#98C5ED;" cx="158.459" cy="452.798" rx="38.853" ry="7.977"/>
			<g>
				<g>
					<g>
						<polygon style="fill:#005683;" points="132.563,287.373 132.432,287.458 133.078,364.645 136.339,444.771 157.246,444.771 
							159.134,287.373 						"/>
						
							<path style="fill:none;stroke:#282828;stroke-width:1.3968;stroke-linecap:round;stroke-linejoin:round;stroke-miterlimit:10;" d="
							M135.32,366.074c4.436,0.803,9.017,0.801,13.452-0.005"/>
						
							<path style="fill:none;stroke:#282828;stroke-width:1.3968;stroke-linecap:round;stroke-linejoin:round;stroke-miterlimit:10;" d="
							M134.804,394.511c2.8,12.586,6.884,24.887,12.17,36.647"/>
					</g>
					<g>
						<polygon style="fill:#005683;" points="159.549,287.373 161.436,444.771 182.607,444.771 186.233,366.48 186.25,287.458 
							186.12,287.373 						"/>
						
							<path style="fill:none;stroke:#282828;stroke-width:1.3968;stroke-linecap:round;stroke-linejoin:round;stroke-miterlimit:10;" d="
							M168.602,367.526c4.314,0.064,8.629,0.128,12.943,0.191"/>
					</g>
					<rect x="147.085" y="287.458" style="fill:#005683;" width="25.628" height="17.407"/>
				</g>
				
					<line style="fill:none;stroke:#282828;stroke-width:1.3968;stroke-linecap:round;stroke-linejoin:round;stroke-miterlimit:10;" x1="150.665" y1="304.865" x2="168.341" y2="304.865"/>
				<path style="fill:#282828;" d="M157.514,446.259c0,0-3.233-8.62-10.16-9.236s-16.625,3.387-17.241,8.159
					c-0.616,4.772-0.77,8.62-0.77,8.62h28.17V446.259z"/>
				<path style="fill:#282828;" d="M161.021,446.259c0,0,3.233-8.62,10.16-9.236s16.625,3.387,17.241,8.159
					c0.616,4.772,0.77,8.62,0.77,8.62h-28.17V446.259z"/>
			</g>
			<g>
				<path style="fill:#FFFFFF;" d="M202.488,251.789c-0.189-7.622-0.917-21.701-5.13-27.876
					c-10.388-15.227-24.957-18.89-24.957-18.89l9.068,35.418c0,0,3.408,9.185,4.194,13.279l1.391,24.525
					c0.235,4.135,3.745,7.315,7.883,7.142c4.076-0.171,7.281-3.54,7.26-7.62C202.108,259.836,202.845,258.866,202.488,251.789z"/>
				<path style="fill:#FFFFFF;" d="M114.895,251.409c0.189-7.622,0.917-21.701,5.13-27.875c10.388-15.227,24.957-18.89,24.957-18.89
					l-9.068,35.418c0,0-3.408,9.185-4.194,13.279l-1.391,24.525c-0.235,4.135-3.745,7.315-7.883,7.142
					c-4.076-0.171-7.281-3.54-7.26-7.619C115.276,259.456,114.539,258.487,114.895,251.409z"/>
				<g>
					<path style="fill:#56EDDE;" d="M144.208,203.922c-8.825,4.527-14.373,10.53-14.373,10.53l1.741,76.751h55.614l-0.18-76.355
						c0,0-7.01-6.86-14.608-10.204C165.949,201.803,150.482,200.704,144.208,203.922z"/>
					<path style="fill:none;stroke:#282828;stroke-linecap:round;stroke-linejoin:round;stroke-miterlimit:10;" d="M149.443,214.311
						c5.244,2.415,11.861,2.384,17.076-0.079"/>
				</g>
				<g>
					<path style="fill:#FFB1A5;" d="M166.603,201.81L166.603,201.81v-17.541H148.65v17.541l-5.344,2.436
						c0,0,1.253,8.072,14.509,8.251c13.256,0.179,14.588-7.854,14.588-7.854L166.603,201.81z"/>
					<path style="fill:#282828;" d="M148.784,190.17c0,0,1.504,7.629,8.143,8.505c7.641,1.009,9.676-8.311,9.676-8.311
						s-3.376,4.231-8.716,4.237C151.932,194.608,148.784,190.17,148.784,190.17z"/>
				</g>
				<g>
					<path style="fill:#FFFFFF;" d="M142.718,204.719c-9.996,4.36-12.883,7.991-12.883,7.991l1.007,74.394l-2.706,55.146h14.582
						V204.719z"/>
					<g>
						<path style="fill:none;stroke:#282828;stroke-linecap:round;stroke-linejoin:round;stroke-miterlimit:10;" d="
							M132.675,259.097v-11.859h7.223v11.859c0,1.995-1.617,3.612-3.611,3.612l0,0C134.292,262.708,132.675,261.091,132.675,259.097
							z"/>
						<path style="fill:none;stroke:#282828;stroke-linecap:round;stroke-linejoin:round;stroke-miterlimit:10;" d="M132.675,304.86
							V293h7.223v11.859c0,1.995-1.617,3.612-3.611,3.612l0,0C134.292,308.471,132.675,306.854,132.675,304.86z"/>
					</g>
					
						<line style="fill:none;stroke:#282828;stroke-linecap:round;stroke-linejoin:round;stroke-miterlimit:10;" x1="130.69" y1="248.516" x2="129.488" y2="226.752"/>
					<g>
						<path style="fill:none;stroke:#282828;stroke-linecap:round;stroke-linejoin:round;stroke-miterlimit:10;" d="
							M142.397,248.252l-9.417-17.032l5.755-7.906l-7.266-1.046l11.139-16.788c0,0.422,0,20.539,0,20.961v77.66"/>
					</g>
					<path style="fill:none;stroke:#282828;stroke-linecap:round;stroke-linejoin:round;stroke-miterlimit:10;" d="M127.632,227.786
						c0.542,0.738,1.083,1.477,1.624,2.215"/>
				</g>
				<g>
					<path style="fill:#FFFFFF;" d="M174.075,342.249h16.778l-3.74-55.146l-0.103-73.764c0,0-7.812-6.492-12.935-7.963V342.249z"/>
					<g>
						<path style="fill:none;stroke:#282828;stroke-linecap:round;stroke-linejoin:round;stroke-miterlimit:10;" d="
							M177.164,259.097v-11.859h7.223v11.859c0,1.995-1.617,3.612-3.611,3.612l0,0C178.781,262.708,177.164,261.091,177.164,259.097
							z"/>
						<path style="fill:none;stroke:#282828;stroke-linecap:round;stroke-linejoin:round;stroke-miterlimit:10;" d="M177.164,304.86
							V293h7.223v11.859c0,1.995-1.617,3.612-3.611,3.612l0,0C178.781,308.471,177.164,306.854,177.164,304.86z"/>
					</g>
					
						<line style="fill:none;stroke:#282828;stroke-linecap:round;stroke-linejoin:round;stroke-miterlimit:10;" x1="187.099" y1="252.701" x2="187.821" y2="227.593"/>
					<path style="fill:none;stroke:#282828;stroke-linecap:round;stroke-linejoin:round;stroke-miterlimit:10;" d="M174.023,205.911
						c0,0.422,0,20.539,0,20.961v77.66"/>
					<polyline style="fill:none;stroke:#282828;stroke-linecap:round;stroke-linejoin:round;stroke-miterlimit:10;" points="
						174.175,205.952 185.162,222.7 177.896,223.746 183.651,231.652 174.234,248.684 					"/>
					<path style="fill:none;stroke:#282828;stroke-linecap:round;stroke-linejoin:round;stroke-miterlimit:10;" d="M189.332,230.274
						c-0.543,0.639-1.085,1.278-1.628,1.916"/>
				</g>
			</g>
			<g>
				<g>
					<path style="fill:#FFFFFF;" d="M143.469,269.025h-19.33c-4.718,0-8.543,3.825-8.543,8.543s3.825,8.543,8.543,8.543h19.33
						V269.025z"/>
					<circle style="fill:#B3B3B3;" cx="143.256" cy="277.421" r="8.618"/>
					<path style="fill:none;stroke:#282828;stroke-linecap:round;stroke-linejoin:round;stroke-miterlimit:10;" d="M119.141,274.279
						c3.415-3.761,8.431-6.018,13.51-6.079"/>
					<path style="fill:none;stroke:#282828;stroke-linecap:round;stroke-linejoin:round;stroke-miterlimit:10;" d="M120.184,270.954
						c2.798-1.816,6.179-2.718,9.51-2.535"/>
				</g>
				<g>
					<path style="fill:#FFFFFF;" d="M174.039,269.025h19.33c4.718,0,8.543,3.825,8.543,8.543s-3.825,8.543-8.543,8.543h-19.33
						V269.025z"/>
					<circle style="fill:#B3B3B3;" cx="174.252" cy="277.421" r="8.618"/>
					<path style="fill:none;stroke:#282828;stroke-linecap:round;stroke-linejoin:round;stroke-miterlimit:10;" d="M198.367,274.279
						c-3.415-3.761-8.431-6.018-13.51-6.079"/>
					<path style="fill:none;stroke:#282828;stroke-linecap:round;stroke-linejoin:round;stroke-miterlimit:10;" d="M197.324,270.954
						c-2.798-1.816-6.179-2.718-9.51-2.535"/>
				</g>
				<rect x="146.04" y="253.268" style="fill:#FFFFFF;" width="24.38" height="35.603"/>
				<g>
					<path style="fill:#FFB1A5;" d="M150.695,280.104c0.303-0.839,0.477-1.74,0.477-2.683c0-4.372-3.544-7.916-7.916-7.916
						c-4.372,0-7.916,3.544-7.916,7.916c0,0.943,0.174,1.844,0.477,2.683H150.695z"/>
					<circle style="fill:#FFB1A5;" cx="147.33" cy="274.639" r="7.76"/>
				</g>
				<g>
					<path style="fill:#FFB1A5;" d="M166.813,280.104c-0.303-0.839-0.477-1.74-0.477-2.683c0-4.372,3.544-7.916,7.916-7.916
						c4.372,0,7.916,3.544,7.916,7.916c0,0.943-0.174,1.844-0.477,2.683H166.813z"/>
					<circle style="fill:#FFB1A5;" cx="170.178" cy="274.639" r="7.76"/>
				</g>
			</g>
			<g>
				<g>
					<path style="fill:#282828;" d="M143.791,176.344l-2.512-12.428c-0.141-1.012-0.534-2.575-0.053-4.042
						c0.796-2.429,3.72-7.093,8.718-4.957l1.081,4.921c0,0-5.191,1.048-7.273,7.838L143.791,176.344z"/>
					<path style="fill:#282828;" d="M149.944,154.916c0,0,3.571-9.419,14.58-4.412c6.664,3.031,8.53,7.094,9.324,9.973
						c0.264,0.957,0.369,2.463,0.297,3.358l-2.663,12.508l-10.397-17.305l-10.061,0.798L149.944,154.916z"/>
					<g>
						<path style="fill:#F3978E;" d="M171.483,175.501c0,0,1.312-2.086,4.017-1.06c2.705,1.026,1.482,7.596-2.576,8.433
							c0,0-1.455,0.317-2.595-0.679C170.329,182.195,171.326,177.343,171.483,175.501z"/>
						<g>
							<g>
								
									<path style="fill:none;stroke:#282828;stroke-width:1.3968;stroke-linecap:round;stroke-linejoin:round;stroke-miterlimit:10;" d="
									M174.964,176.759c0,0-2.266-0.756-3.874,2.581"/>
							</g>
						</g>
					</g>
					<g>
						<path style="fill:#F3978E;" d="M143.791,175.501c0,0-1.312-2.086-4.017-1.06c-2.705,1.026-1.481,7.596,2.576,8.433
							c0,0,1.455,0.317,2.595-0.679C144.946,182.195,143.948,177.343,143.791,175.501z"/>
						<g>
							<g>
								
									<path style="fill:none;stroke:#282828;stroke-width:1.3968;stroke-linecap:round;stroke-linejoin:round;stroke-miterlimit:10;" d="
									M140.311,176.759c0,0,2.266-0.756,3.874,2.581"/>
							</g>
						</g>
					</g>
					<path style="fill:#FFB1A5;" d="M171.754,170.109c0.001,3.961-0.388,12.247-2.822,17.165c-2.286,4.618-6.067,7.103-11.024,7.251
						s-8.65-1.763-11.609-7.756s-2.818-16.586-2.818-16.586s0-14.148,13.984-14.148
						C172.192,156.035,171.754,170.109,171.754,170.109z"/>
					<g>
						
							<path style="fill:none;stroke:#282828;stroke-width:0.75;stroke-linecap:round;stroke-linejoin:round;stroke-miterlimit:10;" d="
							M156.62,175.983v3.274c0,0.141,0.027,0.275,0.076,0.399c0.194,0.485,0.752,0.717,1.257,0.583l1.085-0.289"/>
						<circle style="fill:#282828;" cx="151.217" cy="176.858" r="1.273"/>
						<path style="fill:#282828;" d="M164.425,176.858c0,0.703-0.57,1.273-1.273,1.273c-0.703,0-1.273-0.57-1.273-1.273
							s0.57-1.273,1.273-1.273C163.855,175.585,164.425,176.155,164.425,176.858z"/>
						<path style="fill:#282828;" d="M159.894,169.78l8.559,2.211c0,0-0.389-2.401-3.89-3.273
							C161.061,167.846,159.894,169.78,159.894,169.78z"/>
						<path style="fill:#282828;" d="M154.576,169.78l-8.559,2.211c0,0,0.389-2.401,3.89-3.273
							C153.408,167.846,154.576,169.78,154.576,169.78z"/>
					</g>
				</g>
				<g>
					<g>
						
							<line style="fill:none;stroke:#282828;stroke-width:0.5;stroke-linecap:round;stroke-miterlimit:10;" x1="142.699" y1="173.998" x2="147.571" y2="180.992"/>
						<path style="fill:none;stroke:#282828;stroke-width:0.5;stroke-linecap:round;stroke-miterlimit:10;" d="M144.306,182.734
							c0,0,1.729,4.718,2.752,7.159"/>
						
							<line style="fill:none;stroke:#282828;stroke-width:0.5;stroke-linecap:round;stroke-miterlimit:10;" x1="172.515" y1="174.161" x2="167.587" y2="180.992"/>
						<path style="fill:none;stroke:#282828;stroke-width:0.5;stroke-linecap:round;stroke-miterlimit:10;" d="M171.354,182.804
							c0,0-2.232,4.648-3.255,7.089"/>
						<path style="fill:#FFFFFF;stroke:#282828;stroke-width:0.5;stroke-miterlimit:10;" d="M157.579,195.51
							c0,0,4.715,0.028,10.697-5.617l-0.285-9.281l-10.413-2.233l-10.412,2.233l-0.285,9.281
							C152.864,195.538,157.579,195.51,157.579,195.51z"/>
					</g>
					
						<line style="fill:none;stroke:#282828;stroke-width:0.5;stroke-linecap:round;stroke-miterlimit:10;" x1="151.415" y1="183.341" x2="163.798" y2="183.341"/>
					
						<line style="fill:none;stroke:#282828;stroke-width:0.5;stroke-linecap:round;stroke-miterlimit:10;" x1="153.363" y1="186.541" x2="161.85" y2="186.541"/>
					
						<line style="fill:none;stroke:#282828;stroke-width:0.5;stroke-linecap:round;stroke-miterlimit:10;" x1="153.209" y1="189.883" x2="162.004" y2="189.883"/>
				</g>
				<path style="fill:#282828;" d="M149.807,159.961c-0.091,1.633-1.763,9.423-6.831,12.026c0,0-2.351-10.058,2.419-13.588
					C146.529,157.561,149.624,156.01,149.807,159.961z"/>
				<path style="fill:#282828;" d="M148.044,160.929c0,0,2.598,7.38,14.32,7.154c7.965-0.154,9.499,5.583,9.499,5.583
					s1.359-9.568,0.277-12.51c-1.065-2.895-5.125-6.631-10.477-7.536c-5.802-0.982-13.693,3.584-13.693,3.584L148.044,160.929z"/>
			</g>
		</g>
	</g>
</g>
</svg>
